<svg width="109" height="25" viewBox="0 0 109 25" fill="none" xmlns="http://www.w3.org/2000/svg">
<g clip-path="url(#clip0_8263_17065)">
<path d="M22.8799 24.4198H3.48044C2.20991 24.4198 0.970247 23.7379 0.381391 22.5913C-0.300071 21.2588 -0.0524796 19.6783 1.00112 18.6556L14.5129 5.14429H4.81292C2.14775 5.14429 0.00947155 2.97493 0.00947155 0.340625H17.8906C19.1611 0.340625 20.4006 1.02251 20.9894 2.16914C21.6713 3.50163 21.4233 5.08212 20.3697 6.10464L6.85816 19.6164H18.0456C20.7105 19.6164 22.8799 21.7857 22.8799 24.4198ZM99.6719 0C96.883 0 94.4037 1.20858 92.6682 3.12992C90.9329 1.20858 88.4536 0 85.6647 0C80.5205 0 76.3059 4.40045 76.3059 9.54474V24.4198C78.9708 24.4198 81.1091 22.2505 81.1091 19.6164V9.51387C81.1091 7.03454 83.0304 4.92735 85.5095 4.83453C88.1128 4.7415 90.251 6.81761 90.251 9.38975V19.6164C90.251 22.2816 92.4204 24.4198 95.0545 24.4198V9.48279C95.0545 7.00368 96.9758 4.89627 99.4549 4.80345C102.058 4.71042 104.196 6.78674 104.196 9.35888V19.5853C104.196 22.2507 106.366 24.3888 109 24.3888V9.51408C109.031 4.40045 104.816 0 99.6719 0ZM47.1756 12.3958C47.1756 19.2445 41.6285 24.7915 34.7798 24.7915C27.9311 24.7915 22.3841 19.2445 22.3841 12.3958C22.3841 5.54708 27.9311 0 34.7798 0C41.6285 0 47.1756 5.54708 47.1756 12.3958ZM42.3722 12.3958C42.3722 8.21226 38.9633 4.80345 34.7798 4.80345C30.5963 4.80345 27.1873 8.21226 27.1873 12.3958C27.1873 16.5795 30.5963 19.9883 34.7798 19.9883C38.9633 19.9883 42.3722 16.5795 42.3722 12.3958ZM73.8885 12.3958C73.8885 19.2445 68.3414 24.7915 61.4927 24.7915C54.644 24.7915 49.0969 19.2445 49.0969 12.3958C49.0969 5.54708 54.644 0 61.4927 0C68.3414 0 73.8887 5.54708 73.8887 12.3958M69.0855 12.3958C69.0855 8.21226 65.6767 4.80345 61.4929 4.80345C57.3096 4.80345 53.9006 8.21226 53.9006 12.3958C53.9006 16.5795 57.3094 19.9883 61.4929 19.9883C65.6767 19.9883 69.0855 16.5795 69.0855 12.3958Z" fill="#0B5CFF"/>
</g>
<defs>
<clipPath id="clip0_8263_17065">
<rect width="109" height="24.9082" fill="white"/>
</clipPath>
</defs>
</svg>
